<?xml version="1.0" standalone="no"?>
<!DOCTYPE svg PUBLIC "-//W3C//DTD SVG 20010904//EN"
 "http://www.w3.org/TR/2001/REC-SVG-20010904/DTD/svg10.dtd">
<svg version="1.0" xmlns="http://www.w3.org/2000/svg"
 width="512.000000pt" height="512.000000pt" viewBox="0 0 512.000000 512.000000"
 preserveAspectRatio="xMidYMid meet">
<metadata>
Created by potrace 1.14, written by Peter Selinger 2001-2017
</metadata>
<g transform="translate(0.000000,512.000000) scale(0.100000,-0.100000)"
fill="#000000" stroke="none">
<path d="M415 5110 c-183 -38 -330 -170 -391 -350 -18 -53 -19 -134 -19 -2200
0 -2066 1 -2147 19 -2200 52 -154 168 -274 322 -332 l59 -23 2155 0 2155 0 59
23 c154 58 270 178 322 332 18 53 19 134 19 2200 0 2066 -1 2147 -19 2200 -52
154 -168 274 -322 332 l-59 23 -2130 1 c-1172 1 -2148 -2 -2170 -6z m1255
-2373 c136 -450 250 -820 252 -823 3 -2 109 356 237 797 128 441 237 812 242
825 l9 24 166 -2 167 -3 226 -817 c124 -450 228 -818 231 -818 3 0 115 361
249 803 134 441 248 810 253 820 8 15 26 17 157 17 81 0 150 -3 153 -6 3 -3
-143 -453 -326 -1000 l-331 -994 -159 2 -159 3 -232 814 c-128 448 -234 810
-237 805 -3 -5 -112 -372 -244 -816 l-239 -808 -160 0 -160 0 -328 993 c-180
545 -327 995 -327 1000 0 4 70 6 156 5 l157 -3 247 -818z"/>
</g>
</svg>
